<?xml version="1.0" encoding="utf-8" ?>
<svg xmlns="http://www.w3.org/2000/svg" xmlns:xlink="http://www.w3.org/1999/xlink" width="1024" height="1024">
	<path transform="scale(2 2)" d="M246.939 71.8089C258.88 70.814 268.728 79.4044 271.235 90.7234C289.303 90.8575 304.153 89.1607 311.062 107.3C323.97 107.281 336.802 107.696 349.698 108.101C375.759 108.92 387.973 109.34 392.169 138.823L393.932 151.79C403.552 227.6 408.302 312.406 401.037 387.824C400.022 398.358 402.684 407.648 395.871 416.321C387.022 427.587 371.466 426.202 358.088 427.666C337.997 429.865 317.895 431.854 297.744 433.432L273.713 435.17C270.125 435.433 266.515 435.558 262.941 435.968C237.02 437.417 211.096 438.894 185.124 438.889C171.768 438.886 153.91 441.879 144.322 430.199C137.1 421.402 133.879 402.217 131.298 390.923C118.986 337.056 111.77 276.439 108.89 221.042C107.574 195.719 106.539 170.121 109.143 144.833C111.297 123.915 119.203 121.835 138.027 119.689C149.382 118.394 172.691 115.658 183.538 116.856C184.563 109.631 186.145 101.802 193.49 98.7787C201.549 95.4609 218.101 93.617 227.087 92.4649C224.891 80.326 236.374 73.2539 246.939 71.8089ZM317.749 133.597C313.488 147.45 301.229 144.597 289.806 144.895C264.58 145.553 239.375 146.248 214.196 148.019C201.079 148.942 183.365 154.004 181.501 134.18C172.094 134.514 162.426 136.21 153.148 137.795C145.44 139.112 139.693 140.118 137.282 149.012C135.814 154.428 135.055 164.221 134.474 170.048C132.73 187.531 132.08 205.414 131.636 223.001C130.49 268.293 132.915 313.593 138.03 358.592C138.556 363.212 140.681 379.809 140.003 382.485C141.907 392.385 145.749 410.065 150.095 418.817C151.881 422.468 154.359 425.923 158.358 427.361C163.817 429.325 238.833 427.995 242.792 426.176C248.471 426.578 257.307 425.963 262.941 424.872C288.745 424.562 317.429 421.018 343.08 418.308L367.989 415.497C376.202 414.495 388.45 414.807 389.659 403.874C390.323 397.874 388.261 386.183 387.549 379.749L370.141 203.241L365.576 164.923C364.972 160.219 364.478 145.995 361.399 142.454C354.039 133.992 328.435 134.133 317.749 133.597ZM245.189 82.7968C241.942 83.6297 239.142 85.2066 237.42 88.2308C234.468 93.4151 249.644 90.8233 251.188 90.7234C254.208 90.6491 257.226 90.5886 260.246 90.7234C257.291 84.1683 251.91 82.3694 245.189 82.7968Z"/>
	<path fill="#FECA04" transform="scale(2 2)" d="M314.98 116.856C328.194 116.839 341.171 117.341 354.367 117.988C381.355 119.312 379.738 123.187 384.365 150.731C394.396 210.447 399.025 278.587 396.915 338.777C396.719 344.351 396.873 349.987 395.507 355.437C393.617 358.936 393.427 354.212 393.236 352.593C390.963 333.423 389.453 314.095 387.757 294.864L376.186 167.284C375.447 159.965 375.124 152.172 373.531 144.993C368.198 120.954 336.845 123.262 317.749 123.3C316.487 121.189 315.699 119.208 314.98 116.856Z"/>
	<path fill="#FECA04" transform="scale(2 2)" d="M140.003 382.485C138.433 377.497 137.472 372.374 136.387 367.267L132.398 348.614C121.338 296.466 115.362 256.244 115.383 202.681C115.387 193.721 115.577 140.687 120.892 134.409C125.607 128.838 173.989 124.532 182.015 124.094C181.517 127.309 181.181 130.947 181.501 134.18C172.094 134.514 162.426 136.21 153.148 137.795C145.44 139.112 139.693 140.118 137.282 149.012C135.814 154.428 135.055 164.221 134.474 170.048C132.73 187.531 132.08 205.414 131.636 223.001C130.49 268.293 132.915 313.593 138.03 358.592C138.556 363.212 140.681 379.809 140.003 382.485Z"/>
	<path fill="#FECA04" transform="scale(2 2)" d="M253.359 100.771C260.825 100.629 292.621 100.936 297.28 104.291C301.754 107.514 308.557 122.669 309.28 128.172C310.384 136.568 300.919 134.955 295.542 134.957L279.247 134.967C267.166 134.977 254.845 135.555 242.792 136.473C226.797 136.119 212.903 139.115 197.605 140.126C193.085 140.425 191.273 139.387 190.633 134.529C190.061 130.183 192.762 111.359 195.335 108.275C199.365 103.445 244.867 101.298 253.359 100.771Z"/>
	<path fill="#FEBE5C" transform="scale(2 2)" d="M238.365 424.234L252.59 424.241C256.123 424.253 259.473 424.019 262.941 424.872C257.307 425.963 248.471 426.578 242.792 426.176C244.546 425.498 248.962 426.941 249.66 424.94C245.895 424.659 242.087 425.005 238.365 424.234Z"/>
	<path fill="#FECA04" transform="scale(2 2)" d="M150.095 418.817C162.597 422.252 166.564 422.109 179.793 422.834C199.286 423.902 218.848 424.245 238.365 424.234C242.087 425.005 245.895 424.659 249.66 424.94C248.962 426.941 244.546 425.498 242.792 426.176C238.833 427.995 163.817 429.325 158.358 427.361C154.359 425.923 151.881 422.468 150.095 418.817Z"/>
	<path transform="scale(2 2)" d="M311.062 284.612C314.389 284.259 317.734 285.853 317.822 289.622C317.993 296.884 304.207 295.289 299.57 295.671C286.165 296.774 272.734 297.697 259.307 298.491C251.855 298.603 248.501 293.559 255.874 291.364C267.324 287.956 298.896 285.397 311.062 284.612Z"/>
	<path transform="scale(2 2)" d="M305.703 201.339C307.431 201.059 309.324 201.213 311.062 201.339C313.851 202.955 315.879 207.251 313.126 209.855C309.597 213.194 265.968 214.545 258.063 214.458C247.352 215.883 247.037 208.544 254.367 206.858C261.171 205.293 268.43 205.051 275.375 204.401L305.703 201.339Z"/>
	<path transform="scale(2 2)" d="M318.854 173.751C322.52 173.563 329.809 172.869 330.222 178.114C330.862 186.242 309.971 184.372 303.53 184.759L258.063 187.816C255.417 188.043 250.9 188.828 248.514 187.451C245.71 185.832 246.828 181.892 249.583 180.849C259.226 177.199 290.001 175.586 300.595 174.883C306.661 174.481 312.822 174.465 318.854 173.751Z"/>
	<path transform="scale(2 2)" d="M335.137 342.846C339.925 342.236 344.834 347.677 340.885 351.792C338.088 354.708 327.605 354.098 323.813 354.3L273.449 356.617C269.051 356.82 264.646 357.208 260.246 357.255C257.316 357.339 249.424 356.519 253.45 351.769C255.069 349.86 259.667 349.95 261.916 349.679L276.117 348.029C295.787 345.857 315.451 344.678 335.137 342.846Z"/>
	<path transform="scale(2 2)" d="M336.279 256.736C341.296 256.475 344.32 261.418 340.722 265.123C337.534 267.946 333.041 267.304 329.037 267.536L282.785 270.617C274.297 271.285 265.819 272.125 257.313 272.545C254.802 272.696 250.744 272.716 250.315 269.329C249.662 264.169 267.656 263.183 270.866 262.731C292.424 259.693 314.477 257.055 336.279 256.736Z"/>
	<path transform="scale(2 2)" d="M339.609 368.895C356.214 368.058 352.035 378.169 346.937 378.889C339.815 379.895 332.557 379.237 325.395 379.498C307.138 380.163 283.481 380.861 265.69 383.252C263.063 383.336 250.308 383.488 256.058 377.09C260.296 372.375 330.431 369.315 339.609 368.895Z"/>
	<path transform="scale(2 2)" d="M227.087 335.529L227.276 335.513C240.893 334.29 219.715 353.233 218.45 355.134L218.25 355.437C219.629 362.944 222.269 381.593 218.697 388.367C214.117 397.053 172.362 403.377 168.648 388.925C167.031 382.632 164.68 353.902 168.411 347.91C173.888 339.114 210.291 339.386 211.857 345.943L211.558 346.324C206.564 348.752 185.926 349.582 179.471 349.575C177.241 349.737 174.983 349.622 172.748 349.575C172.647 352.83 175.168 385.401 177.211 387.018C181.932 390.755 208.615 388.553 212.033 383.482C213.602 381.154 212.371 365.626 211.673 362.415C208.798 365.587 196.998 380.062 193.628 380.392C187.371 381.005 171.734 359.325 183.474 359.75C186.151 359.847 191.184 367.172 193.095 369.376C202.468 360.733 216.651 340.934 227.087 335.529Z"/>
	<path transform="scale(2 2)" d="M223.24 165.124C227.15 165.484 229.106 169.201 226.026 172.277C224.26 174.042 221.698 174.877 219.738 176.429C216.593 178.921 213.93 182.072 210.916 184.738C215.161 191.493 218.642 210.253 215.367 216.42C209.946 226.623 176.961 228.328 169.094 224.183C158.229 218.458 157.945 181.817 161.091 176.519C166.424 167.537 199.283 168.328 208.259 173.751C202.082 176.517 181.026 178.522 173.172 179.355C170.42 179.651 167.7 180.031 164.968 180.472C167.62 190.229 167.778 208.132 171.432 214.955C174.588 220.849 202.597 215.576 207.129 212.807C210.131 210.972 208.415 204.698 208.279 201.838C208.004 196.047 208.761 190.326 210.258 184.738C207.392 189.225 191.143 210.486 184.9 206.774C181.542 204.777 174.04 195.171 172.748 190.655C176.375 180.948 184.801 193.019 187.782 196.712C196.502 188.931 212.714 166.092 223.24 165.124Z"/>
	<path transform="scale(2 2)" d="M228.145 246.493C240.919 247.052 215.052 269.383 214.036 270.395C218.702 277.913 220.43 296.565 215.647 303.347C209.892 311.507 177.679 313.705 170.059 308.074C163.153 301.118 161.473 266.696 166.16 262.23C173.681 255.064 203.15 254.281 210.258 261.643C214.319 257.611 223.219 248.425 228.145 246.493ZM208.259 262.575C197.488 266.344 181.55 264.315 170.059 265.123C168.867 272.084 171.058 279.461 172.13 286.335C173.079 292.422 171.974 301.801 179.237 302.528C187.298 303.335 202.603 301.241 210.258 298.491C211.375 293.828 210.541 288.223 210.258 283.465L210.258 274.976C206.593 279.143 198.024 288.859 193.79 291.935C190.578 294.269 188.242 293.72 185.399 291.084C181.21 287.2 170.151 276.411 181.501 274.976C185.513 275.646 187.892 280.705 190.523 283.465C193.327 278.05 208.446 264.606 208.403 262.714L208.259 262.575Z"/>
</svg>
